<?xml version="1.0" encoding="UTF-8" ?>
<!DOCTYPE svg PUBLIC "-//W3C//DTD SVG 1.1//EN" "http://www.w3.org/Graphics/SVG/1.1/DTD/svg11.dtd">
<svg width="1024pt" height="1024pt" viewBox="0 0 1024 1024" version="1.1" xmlns="http://www.w3.org/2000/svg">
<g id="#fdfdfeff">
<path fill="#fdfdfe" opacity="1.00" d=" M 212.75 756.75 C 225.86 753.01 241.83 755.39 250.85 766.33 C 243.13 766.50 235.72 763.91 228.02 763.81 C 218.44 763.00 208.86 764.46 199.28 763.85 C 202.49 759.52 207.79 758.02 212.75 756.75 Z" />
<path fill="#fdfdfe" opacity="1.00" d=" M 771.84 766.81 C 784.26 750.14 808.71 754.13 824.43 763.54 C 817.75 765.81 810.79 763.73 803.97 763.70 C 793.15 763.17 782.48 765.18 771.84 766.81 Z" />
<path fill="#fdfdfe" opacity="1.00" d=" M 258.63 827.64 C 274.88 818.08 297.43 817.61 312.42 829.92 C 299.84 828.63 287.07 827.13 274.52 829.58 C 266.90 830.58 259.73 834.10 251.98 834.10 C 252.02 830.51 256.12 829.30 258.63 827.64 Z" />
<path fill="#fdfdfe" opacity="1.00" d=" M 725.06 822.07 C 741.12 818.62 759.61 822.51 771.55 834.13 C 765.18 834.49 759.10 832.50 753.03 830.92 C 739.15 827.35 724.62 827.83 710.50 829.52 C 714.39 825.46 719.63 823.22 725.06 822.07 Z" />
</g>
<g id="#7c4910ff">
<path fill="#7c4910" opacity="1.00" d=" M 515.34 103.85 C 518.51 104.16 521.70 105.67 521.44 109.38 C 522.95 145.49 525.34 181.59 526.25 217.73 C 527.46 217.77 528.67 217.82 529.89 217.88 C 530.34 181.05 530.98 144.19 532.53 107.41 C 532.69 102.47 540.56 103.18 539.69 108.19 C 541.98 157.76 545.10 207.34 545.42 256.98 C 545.83 275.83 537.59 294.94 522.61 306.61 C 519.99 308.75 516.66 311.13 517.15 314.98 C 517.20 348.79 519.28 382.54 521.60 416.25 C 524.30 468.20 528.61 520.08 530.00 572.08 C 530.52 581.85 523.50 591.09 513.88 593.01 C 501.86 595.85 489.09 585.39 489.55 573.03 C 492.76 487.29 499.37 401.70 502.65 315.96 C 503.78 310.24 497.76 307.85 494.25 304.73 C 480.51 293.85 473.23 276.19 473.41 258.86 C 472.97 208.94 476.97 159.10 478.39 109.23 C 478.04 105.16 482.07 104.45 485.25 104.50 C 487.56 142.31 487.93 180.24 489.16 218.10 C 490.47 218.13 491.78 218.16 493.10 218.19 C 494.13 182.13 495.23 146.06 496.93 110.02 C 497.11 108.28 497.51 106.55 498.26 104.96 C 501.15 104.03 504.06 105.94 503.93 109.09 C 505.45 145.43 506.32 181.83 507.69 218.19 C 509.17 218.18 510.65 218.17 512.14 218.16 C 512.80 188.44 513.17 158.71 514.07 128.99 C 514.38 120.61 513.95 112.16 515.34 103.85 M 509.62 322.68 C 505.31 371.66 506.21 420.89 504.92 470.00 C 504.17 504.02 504.29 538.05 502.98 572.06 C 502.77 575.93 503.38 581.45 508.13 582.20 C 513.39 583.75 517.62 578.61 517.52 573.72 C 516.22 507.50 515.26 441.24 514.06 375.01 C 512.68 357.58 513.95 339.74 509.62 322.68 Z" />
<path fill="#7c4910" opacity="1.00" d=" M 147.05 598.21 C 147.56 597.51 148.08 596.80 148.59 596.10 C 149.25 603.66 155.48 608.68 159.21 614.79 C 169.84 631.07 179.75 647.89 191.78 663.21 C 202.54 676.11 215.69 686.66 228.16 697.81 C 306.50 767.65 384.73 837.63 464.36 906.00 C 460.42 909.66 457.36 914.18 453.23 917.62 C 432.09 898.85 411.47 879.46 390.60 860.37 C 356.76 829.22 322.27 798.76 289.07 766.91 C 264.36 744.31 240.31 721.00 215.49 698.52 C 204.07 687.92 192.47 677.28 183.84 664.19 C 174.56 649.94 165.80 635.36 157.38 620.60 C 153.46 613.39 149.00 606.28 147.05 598.21 Z" />
<path fill="#7c4910" opacity="1.00" d=" M 828.08 665.09 C 844.55 644.10 856.94 620.09 873.77 599.45 C 873.03 605.21 870.11 610.29 867.22 615.21 C 857.30 632.19 847.16 649.04 836.71 665.70 C 827.84 680.11 814.73 691.06 802.44 702.42 C 774.23 728.22 746.07 754.06 717.81 779.80 C 667.46 826.18 615.80 871.13 565.79 917.87 C 561.71 914.18 557.79 910.32 554.22 906.13 C 610.48 858.16 665.82 809.10 721.75 760.74 C 746.95 739.31 771.27 716.87 796.38 695.32 C 807.17 685.50 818.75 676.40 828.08 665.09 Z" />
</g>
<g id="#378fd5ff">
<path fill="#378fd5" opacity="1.00" d=" M 313.39 166.39 C 328.02 152.20 352.75 149.73 369.60 161.40 C 381.89 169.87 391.06 184.65 388.85 200.01 C 387.43 213.88 375.75 223.75 364.12 229.70 C 356.05 224.68 348.27 218.94 339.19 215.76 C 325.44 210.54 310.65 209.43 296.09 208.77 C 297.47 193.39 301.20 176.97 313.39 166.39 Z" />
<path fill="#378fd5" opacity="1.00" d=" M 211.97 256.93 C 234.57 237.09 264.11 225.28 294.19 224.41 C 316.06 224.33 338.69 230.12 355.88 244.12 C 370.18 255.64 381.62 273.89 377.97 292.90 C 371.92 330.90 359.10 367.54 343.61 402.64 C 332.30 428.08 318.41 453.64 296.14 471.14 C 280.88 483.28 258.10 487.46 240.81 477.18 C 220.62 464.10 207.37 442.61 199.86 420.14 C 197.21 413.06 196.10 405.51 193.56 398.40 C 191.98 392.73 183.22 393.14 180.63 397.63 C 179.30 403.50 181.52 409.44 182.86 415.12 C 189.85 440.87 202.00 466.77 223.68 483.32 C 230.86 488.86 239.37 492.17 247.59 495.80 C 245.06 503.19 242.56 510.59 240.11 518.01 C 225.44 509.92 211.81 499.87 200.28 487.69 C 179.58 464.77 165.93 435.59 161.98 404.93 C 159.86 387.11 159.46 368.98 162.10 351.19 C 167.05 315.31 184.41 280.73 211.97 256.93 Z" />
<path fill="#378fd5" opacity="1.00" d=" M 374.72 239.88 C 381.60 235.31 389.49 231.17 398.02 231.99 C 411.81 233.33 423.75 243.06 429.76 255.28 C 437.27 268.43 434.95 284.97 428.32 297.99 C 437.74 306.44 449.10 314.33 452.98 327.04 C 456.42 337.35 452.43 349.39 443.63 355.70 C 436.43 361.06 426.01 360.02 418.85 355.14 C 408.49 348.00 400.25 338.30 392.66 328.39 C 390.14 325.28 391.03 321.12 391.52 317.51 C 393.65 304.49 396.23 291.31 395.01 278.06 C 392.75 263.44 384.16 250.89 374.72 239.88 Z" />
<path fill="#378fd5" opacity="1.00" d=" M 381.93 348.10 C 395.18 357.72 407.26 368.93 420.82 378.18 C 428.94 383.90 437.73 390.24 440.92 400.15 C 444.13 409.82 440.12 419.78 436.84 428.85 C 430.42 446.10 423.51 463.18 417.51 480.58 C 414.53 488.01 419.74 494.97 422.51 501.54 C 446.01 549.84 467.22 599.20 490.46 647.62 C 492.86 652.87 496.39 657.94 496.39 663.95 C 496.18 698.65 496.48 733.36 496.26 768.07 C 478.02 773.08 459.80 778.20 441.21 781.78 C 414.61 720.62 386.84 659.96 360.05 598.88 C 353.35 583.98 347.66 567.14 333.71 557.34 C 310.83 541.87 282.41 538.37 258.20 525.62 C 258.86 516.33 262.57 507.37 263.24 497.98 C 286.16 497.32 306.87 484.53 321.74 467.73 C 347.43 439.07 361.95 402.59 374.87 366.87 C 377.22 360.62 378.46 353.88 381.93 348.10 Z" />
<path fill="#378fd5" opacity="1.00" d=" M 369.58 773.73 C 376.99 778.79 382.75 785.97 390.69 790.31 C 404.76 798.72 421.78 799.18 437.70 798.50 C 457.65 796.67 476.72 790.11 495.95 784.90 C 495.83 793.95 496.22 803.01 495.88 812.05 C 496.11 818.87 487.63 819.48 482.65 820.58 C 461.94 822.58 441.00 822.92 420.24 821.69 C 395.81 818.98 369.17 800.56 369.58 773.73 Z" />
</g>
<g id="#ec8619ff">
<path fill="#ec8619" opacity="1.00" d=" M 658.56 156.55 C 677.86 149.34 700.85 157.97 712.37 174.60 C 718.89 184.51 722.60 196.71 721.85 208.56 C 701.08 209.50 679.75 214.21 662.76 226.78 C 660.16 228.37 657.01 231.89 653.97 229.16 C 645.45 223.23 635.46 217.40 632.08 206.90 C 624.20 186.45 639.09 163.56 658.56 156.55 Z" />
<path fill="#ec8619" opacity="1.00" d=" M 706.13 227.06 C 739.66 220.33 774.88 231.09 802.16 250.85 C 826.34 268.45 843.78 294.31 853.67 322.34 C 862.27 346.50 863.80 372.63 861.89 398.03 C 857.83 448.08 827.16 496.39 781.06 517.57 C 779.52 510.25 777.63 503.01 775.07 495.98 C 807.12 485.31 828.27 455.18 838.04 424.09 C 840.27 415.69 844.09 407.12 842.98 398.30 C 840.12 395.20 833.19 391.62 830.47 396.53 C 828.07 400.96 827.21 405.99 825.81 410.78 C 821.40 427.32 814.17 443.20 803.91 456.95 C 795.68 467.53 785.29 477.12 772.29 481.30 C 759.29 485.82 744.82 482.44 733.20 475.76 C 716.33 465.23 704.27 448.81 693.69 432.32 C 677.84 404.70 665.57 375.10 656.31 344.65 C 650.40 326.20 645.32 307.24 644.36 287.80 C 643.71 276.09 648.25 264.57 655.47 255.50 C 667.84 239.86 686.68 230.34 706.13 227.06 Z" />
<path fill="#ec8619" opacity="1.00" d=" M 623.45 232.51 C 631.91 231.38 639.87 235.34 646.65 239.98 C 638.63 250.22 630.81 261.44 628.63 274.54 C 626.44 290.79 630.13 306.99 632.10 323.06 C 632.97 327.75 628.90 330.98 626.12 334.09 C 616.83 343.19 608.13 353.99 595.54 358.55 C 586.60 362.07 577.13 356.12 572.16 348.84 C 566.74 340.63 567.19 329.36 571.85 320.92 C 576.98 311.70 586.12 305.79 592.70 297.80 C 591.35 292.44 588.49 287.49 588.08 281.89 C 584.48 259.73 600.48 235.11 623.45 232.51 Z" />
<path fill="#ec8619" opacity="1.00" d=" M 607.43 372.42 C 618.88 364.54 628.55 354.15 640.83 347.53 C 647.52 368.59 655.59 389.19 664.67 409.33 C 674.91 431.23 686.57 452.98 703.58 470.44 C 717.89 485.78 737.65 497.18 758.92 498.23 C 760.82 507.18 762.53 516.18 764.55 525.10 C 746.93 532.82 728.72 539.11 710.61 545.58 C 700.58 548.95 690.92 553.84 683.23 561.22 C 673.54 569.87 669.37 582.55 663.89 593.93 C 636.24 656.70 608.76 719.55 579.83 781.74 C 561.90 778.14 544.26 773.21 526.70 768.16 C 526.56 735.78 526.73 703.39 526.60 671.01 C 526.32 665.06 526.77 658.94 529.49 653.54 C 551.92 603.78 574.66 554.15 597.66 504.66 C 601.08 496.06 609.00 487.00 604.58 477.39 C 597.21 459.45 589.87 441.49 582.44 423.58 C 578.61 414.60 577.12 403.88 582.01 395.00 C 587.57 384.71 598.66 379.52 607.43 372.42 Z" />
<path fill="#ec8619" opacity="1.00" d=" M 611.14 797.10 C 627.05 794.32 640.20 784.36 651.38 773.26 C 651.60 783.35 647.56 793.32 640.70 800.68 C 627.32 815.59 606.64 822.32 586.98 822.12 C 570.35 821.96 553.60 822.47 537.11 819.98 C 533.24 818.96 527.13 818.00 526.87 813.00 C 526.25 803.72 526.75 794.40 526.83 785.10 C 554.10 792.73 582.50 802.52 611.14 797.10 Z" />
</g>
<g id="#098d0cff">
<path fill="#098d0c" opacity="1.00" d=" M 97.10 500.61 C 99.97 503.19 102.51 506.12 104.72 509.28 C 116.64 525.14 135.72 533.60 147.92 549.14 C 157.52 562.63 157.39 582.33 148.59 596.10 C 148.08 596.80 147.56 597.51 147.05 598.21 C 143.60 593.58 137.48 593.38 132.49 591.48 C 120.14 587.41 108.21 579.33 103.04 566.98 C 96.87 553.29 96.65 538.01 96.50 523.28 C 96.48 515.72 96.02 508.12 97.10 500.61 Z" />
<path fill="#098d0c" opacity="1.00" d=" M 910.58 515.58 C 915.32 510.90 918.98 505.29 923.64 500.52 C 924.53 513.99 923.68 527.50 923.25 540.96 C 922.07 556.68 917.74 574.53 903.53 583.53 C 894.34 591.01 882.24 592.15 871.72 596.82 C 864.98 583.83 862.80 567.44 870.22 554.26 C 879.13 537.17 897.73 529.09 910.58 515.58 Z" />
<path fill="#098d0c" opacity="1.00" d=" M 911.97 656.15 C 924.34 657.48 935.99 652.05 948.16 650.99 C 943.43 656.00 937.85 660.11 933.21 665.21 C 921.89 677.02 912.91 690.82 901.82 702.83 C 893.00 711.85 882.42 719.75 870.07 723.05 C 855.08 726.79 838.90 722.98 826.31 714.31 C 829.70 708.86 831.04 702.58 832.42 696.41 C 838.36 672.60 861.49 654.62 885.92 654.15 C 894.68 653.32 903.30 655.28 911.97 656.15 Z" />
<path fill="#098d0c" opacity="1.00" d=" M 72.54 651.76 C 84.15 652.39 95.26 657.19 107.01 656.28 C 121.52 655.12 136.78 651.83 150.88 657.10 C 164.77 662.44 177.34 672.37 184.33 685.66 C 188.98 694.97 189.58 705.59 192.76 715.40 C 175.92 726.19 153.09 727.91 135.79 717.22 C 115.61 705.34 103.92 684.35 88.61 667.42 C 83.74 661.70 77.49 657.39 72.54 651.76 Z" />
<path fill="#098d0c" opacity="1.00" d=" M 228.41 830.42 C 245.85 825.01 260.51 812.15 279.11 810.26 C 294.52 808.04 310.03 813.43 322.23 822.73 C 330.39 828.50 336.24 836.97 344.81 842.23 C 338.72 846.59 333.80 852.30 327.91 856.92 C 313.85 868.35 294.48 873.23 276.75 869.14 C 256.72 865.08 239.95 852.73 221.66 844.36 C 215.67 841.67 209.55 839.28 203.75 836.20 C 211.94 834.14 220.41 833.21 228.41 830.42 M 258.63 827.64 C 256.12 829.30 252.02 830.51 251.98 834.10 C 259.73 834.10 266.90 830.58 274.52 829.58 C 287.07 827.13 299.84 828.63 312.42 829.92 C 297.43 817.61 274.88 818.08 258.63 827.64 Z" />
<path fill="#098d0c" opacity="1.00" d=" M 718.20 812.21 C 731.46 808.25 746.25 809.09 758.72 815.25 C 770.04 820.85 781.27 826.84 793.38 830.61 C 800.68 833.03 808.40 833.79 815.78 835.94 C 807.99 839.48 799.83 842.17 792.33 846.34 C 778.11 853.44 765.00 863.00 749.64 867.66 C 734.58 872.71 717.61 870.63 703.62 863.39 C 693.47 858.14 685.98 849.31 677.17 842.26 C 681.61 839.84 685.12 836.19 688.40 832.42 C 696.80 823.78 706.53 815.83 718.20 812.21 M 725.06 822.07 C 719.63 823.22 714.39 825.46 710.50 829.52 C 724.62 827.83 739.15 827.35 753.03 830.92 C 759.10 832.50 765.18 834.49 771.55 834.13 C 759.61 822.51 741.12 818.62 725.06 822.07 Z" />
</g>
<g id="#ceda1bff">
<path fill="#ceda1b" opacity="1.00" d=" M 193.10 551.14 C 218.90 567.88 245.81 588.72 254.29 619.78 C 261.10 643.36 249.07 666.23 244.67 689.02 C 234.04 678.05 223.30 667.12 213.99 655.00 C 202.23 639.67 195.61 620.40 196.28 601.03 C 196.89 584.32 196.16 567.60 193.10 551.14 Z" />
<path fill="#ceda1b" opacity="1.00" d=" M 777.95 595.97 C 790.28 576.72 809.97 564.26 828.12 551.13 C 826.36 561.80 823.49 572.35 823.51 583.23 C 823.60 599.80 825.06 616.85 819.89 632.88 C 812.82 656.11 794.52 673.06 777.76 689.58 C 775.23 673.20 766.61 658.39 765.27 641.76 C 763.18 625.50 768.85 609.27 777.95 595.97 Z" />
<path fill="#ceda1b" opacity="1.00" d=" M 190.22 754.22 C 204.40 751.01 218.52 744.93 233.33 746.68 C 248.41 749.32 262.17 758.84 270.06 771.97 C 271.64 774.91 275.15 777.92 274.42 781.42 C 262.05 794.76 242.25 801.95 224.39 796.61 C 200.19 790.01 185.08 768.10 163.80 756.23 C 172.62 755.97 181.58 756.37 190.22 754.22 M 212.75 756.75 C 207.79 758.02 202.49 759.52 199.28 763.85 C 208.86 764.46 218.44 763.00 228.02 763.81 C 235.72 763.91 243.13 766.50 250.85 766.33 C 241.83 755.39 225.86 753.01 212.75 756.75 Z" />
<path fill="#ceda1b" opacity="1.00" d=" M 775.77 750.82 C 788.31 744.40 803.19 745.47 816.21 749.82 C 829.41 754.22 843.05 758.34 857.14 756.40 C 839.29 770.24 823.43 787.70 801.93 795.95 C 782.98 803.18 761.02 796.80 746.97 782.71 C 753.91 770.10 762.71 757.65 775.77 750.82 M 771.84 766.81 C 782.48 765.18 793.15 763.17 803.97 763.70 C 810.79 763.73 817.75 765.81 824.43 763.54 C 808.71 754.13 784.26 750.14 771.84 766.81 Z" />
</g>
<g id="#848d0aff">
<path fill="#848d0a" opacity="1.00" d=" M 95.90 590.92 C 111.79 587.04 130.24 594.67 137.47 609.61 C 140.49 615.55 143.84 621.32 147.95 626.58 C 143.36 627.32 138.94 628.80 134.75 630.78 C 122.30 636.17 107.64 637.67 95.03 631.92 C 83.56 626.44 74.80 616.91 65.91 608.10 C 63.01 605.15 59.50 602.49 58.03 598.48 C 70.85 597.03 83.36 593.87 95.90 590.92 Z" />
<path fill="#848d0a" opacity="1.00" d=" M 268.16 589.48 C 273.61 592.23 277.72 596.76 281.93 601.06 C 296.74 615.76 310.82 632.94 315.18 653.87 C 319.34 672.32 311.25 691.38 298.82 704.85 C 294.25 709.56 290.57 715.10 288.70 721.44 C 278.76 710.21 270.91 696.57 268.41 681.64 C 264.98 660.32 272.91 639.30 271.94 617.95 C 272.00 608.31 269.46 598.96 268.16 589.48 Z" />
<path fill="#848d0a" opacity="1.00" d=" M 740.68 599.68 C 744.29 595.76 748.13 591.96 752.99 589.61 C 752.04 598.73 749.86 607.75 750.16 616.98 C 749.57 640.64 759.97 664.41 752.77 687.81 C 749.30 700.41 740.57 710.49 733.61 721.27 C 728.93 708.63 718.00 699.90 712.03 688.01 C 706.80 678.04 703.93 666.45 706.26 655.25 C 709.70 632.81 725.48 615.37 740.68 599.68 Z" />
<path fill="#848d0a" opacity="1.00" d=" M 890.19 600.19 C 899.20 591.68 912.34 588.15 924.46 590.63 C 937.83 593.51 951.08 596.99 964.68 598.76 C 953.56 611.87 941.64 625.56 925.61 632.68 C 913.28 637.52 899.29 635.27 887.17 630.82 C 882.35 628.85 877.37 627.22 872.18 626.60 C 881.06 619.88 882.33 607.73 890.19 600.19 Z" />
</g>
</svg>
